<svg width="382" height="512" viewBox="0 0 382 512" fill="none" xmlns="http://www.w3.org/2000/svg">
<g clip-path="url(#clip0)">
<path d="M63.7607 462.395H17.6735V433.241H0V510.142H17.6735V478.494H63.7607V510.142H81.3889V433.241H63.7607V462.395Z" fill="#595857"/>
<path d="M146.328 431.428C117.869 431.428 101.011 446.708 101.011 472.237C101.011 490.371 112.929 511.955 146.328 511.955C179.726 511.955 191.644 490.508 191.644 472.237C191.826 446.708 174.832 431.428 146.328 431.428ZM146.328 447.071C164.001 447.071 174.152 456.138 174.152 471.466C174.152 493.092 156.751 496.313 146.328 496.313C135.905 496.313 118.549 493.092 118.549 471.466C118.549 455.957 128.7 447.071 146.328 447.071Z" fill="#595857"/>
<path d="M239.544 463.44L214.801 433.241H192.959L230.708 479.625V510.142H248.381V479.625L286.13 433.241H264.151L239.544 463.44Z" fill="#595857"/>
<path d="M363.35 433.241V476.088C363.35 486.156 360.63 496.494 340.328 496.494C320.027 496.494 317.217 485.974 317.217 476.088V433.241H299.633V476.904C299.633 499.849 313.683 512 340.421 512C367.158 512 381.205 499.849 381.205 476.904V433.241H363.35Z" fill="#595857"/>
<path d="M270.586 44.5256C268.774 44.5256 266.916 44.5256 265.103 44.5256H264.061C247.624 44.651 231.436 48.5505 216.743 55.9245C202.051 63.2982 189.247 73.9493 179.318 87.0565C187.985 91.4617 195.919 97.1819 202.838 104.014C212.121 113.205 219.309 124.295 223.91 136.524C226.919 128.317 232.374 121.232 239.54 116.228C246.705 111.224 255.233 108.543 263.97 108.549H265.012C276.346 108.549 287.216 113.053 295.23 121.072C303.244 129.09 307.745 139.966 307.745 151.306C307.745 162.646 303.244 173.521 295.23 181.54C287.216 189.558 276.346 194.063 265.012 194.063H263.97C257.982 194.067 252.06 192.804 246.594 190.358C241.127 187.913 236.239 184.339 232.249 179.871C232.702 187.443 232.792 195.197 232.792 202.996C232.792 210.794 232.792 219.137 232.792 222.266V254.821C242.884 257.922 253.369 259.556 263.925 259.673H264.877C292.968 259.754 319.979 248.839 340.132 229.258C360.287 209.678 371.986 182.987 372.733 154.889C373.477 126.792 363.21 99.5165 344.124 78.8936C325.037 58.2708 298.642 45.936 270.586 44.5256Z" fill="#595857"/>
<path d="M310.918 264.479V283.386C310.918 283.386 310.918 285.517 310.918 286.606C310.632 297.313 306.435 307.542 299.121 315.365C291.805 323.185 281.879 328.052 271.221 329.046C269.771 329.046 268.32 329.046 266.689 329.046C265.058 329.046 263.789 329.046 262.157 329.046H260.707C259.749 328.96 258.796 328.823 257.852 328.639L256.266 328.275C255.36 328.275 254.499 327.868 253.593 327.594C253.096 327.469 252.611 327.302 252.142 327.097C251.237 326.855 250.344 326.57 249.469 326.233L248.2 325.644C247.294 325.236 246.342 324.873 245.435 324.42L244.71 323.742C243.774 323.257 242.822 322.712 241.856 322.108C241.6 321.98 241.357 321.828 241.131 321.655C240.134 321.021 239.182 320.384 238.23 319.661L237.732 319.297L234.831 316.94C234.733 316.812 234.61 316.702 234.469 316.621C233.517 315.716 232.611 314.853 231.705 313.901L231.433 313.585C230.572 312.633 229.756 311.68 228.94 310.638L228.668 310.275C227.898 309.23 227.218 308.233 226.539 307.191L226.176 306.602C225.587 305.604 224.998 304.56 224.499 303.61L224.046 302.613C223.638 301.66 223.23 300.752 222.868 299.8C222.505 298.847 222.551 298.803 222.369 298.303C222.188 297.805 221.871 296.808 221.644 296.037C221.418 295.266 221.282 294.45 221.146 293.724L220.874 292.137C220.701 291.042 220.595 289.936 220.557 288.828C220.535 288.692 220.535 288.555 220.557 288.419C220.557 287.875 220.557 287.422 220.557 286.923C220.557 286.424 220.557 285.699 220.557 285.11C220.532 284.641 220.532 284.172 220.557 283.704V240.629V223.535C220.557 223.535 220.557 221.903 220.557 219.681C220.557 215.691 220.557 209.071 220.557 202.859C220.557 165.316 217.339 135.754 194.228 112.72C187.808 106.386 180.361 101.189 172.204 97.3488C170.346 96.442 168.442 95.5806 166.494 94.8099C164.545 94.0389 162.597 93.3135 160.557 92.6333C142.431 86.6483 121.63 85.2879 98.6546 85.2879V45.3418L26.4197 0V214.92L74.9993 283.386L79.1683 289.236L83.3827 295.175L79.4403 300.345L76.1323 304.878L75.4524 305.741L10.5588 390.212H97.4764L149.545 322.334C146.342 312.933 144.555 303.107 144.243 293.18V283.794L143.971 216.19L135.135 227.752L131.192 232.876L126.887 238.09L122.355 232.332L118.413 226.709L98.7907 200.592V151.668C122.763 151.668 135.905 152.077 145.331 161.145C146.26 162.001 147.123 162.925 147.914 163.911C150.407 167.051 152.283 170.636 153.443 174.475C153.896 176.062 154.349 177.604 154.666 179.009C154.983 180.415 155.074 180.959 155.255 181.957C155.618 184.315 155.799 186.491 155.935 188.758C156.161 192.385 156.161 195.741 156.161 198.28V202.451L156.434 283.568V291.14C156.582 297.404 157.387 303.634 158.835 309.73C159.446 312.579 160.202 315.392 161.101 318.163C161.962 320.747 162.868 323.379 163.911 325.873C178.095 359.561 211.72 384.226 249.242 389.939C254.39 390.683 259.584 391.061 264.786 391.073C270.197 391.037 275.601 390.659 280.964 389.939C332.353 382.684 372.593 342.105 372.593 281.618V208.572C359.195 233.846 337.375 253.626 310.918 264.479Z" fill="#21AEE5"/>
</g>
<defs>
<clipPath id="clip0">
<rect width="381.023" height="512" fill="white"/>
</clipPath>
</defs>
</svg>
